<?xml version="1.0" standalone="no"?>
<!DOCTYPE svg PUBLIC "-//W3C//DTD SVG 20010904//EN"
 "http://www.w3.org/TR/2001/REC-SVG-20010904/DTD/svg10.dtd">
<svg version="1.0" xmlns="http://www.w3.org/2000/svg"
 width="240.000000pt" height="240.000000pt" viewBox="0 0 240.000000 240.000000"
 preserveAspectRatio="xMidYMid meet">
<metadata>
Created by potrace 1.14, written by Peter Selinger 2001-2017
</metadata>
<g transform="translate(0.000000,240.000000) scale(0.100000,-0.100000)"
fill="#000000" stroke="none">
<path d="M1056 2197 c-28 -21 -32 -95 -7 -134 40 -64 101 -33 101 51 0 36 -5
52 -25 71 -27 28 -43 31 -69 12z m52 -29 c34 -43 14 -126 -25 -102 -22 14 -31
93 -11 105 18 12 24 11 36 -3z"/>
<path d="M1186 2173 c-11 -72 -7 -133 9 -133 10 0 15 10 15 29 0 23 5 30 27
36 33 8 43 21 43 56 0 34 -17 49 -56 49 -29 0 -32 -3 -38 -37z m62 -15 c-5
-34 -38 -37 -38 -4 0 20 5 26 21 26 15 0 20 -5 17 -22z"/>
<path d="M1312 2136 c-14 -76 -15 -106 -3 -106 5 0 14 24 19 53 l10 52 1 -52
c1 -68 20 -70 49 -5 12 26 20 38 17 27 -2 -11 -7 -35 -10 -54 -6 -26 -4 -32 6
-29 8 3 19 33 26 69 17 88 16 99 -5 99 -13 0 -23 -13 -32 -41 -19 -58 -30 -58
-30 0 0 43 -3 51 -18 51 -15 0 -21 -13 -30 -64z"/>
<path d="M892 2143 c-18 -20 -22 -34 -18 -57 8 -37 33 -66 58 -66 10 0 18 -5
18 -12 0 -6 14 4 30 22 33 37 35 44 19 88 -10 28 -18 34 -69 48 -8 2 -26 -9
-38 -23z m86 -51 c2 -18 -1 -32 -7 -32 -6 0 -11 1 -11 3 0 1 -4 17 -9 35 -9
29 -8 33 7 30 11 -2 18 -15 20 -36z m-50 -4 c10 -38 9 -43 -13 -35 -16 7 -22
67 -5 67 5 0 13 -15 18 -32z"/>
<path d="M1479 2107 c-12 -34 -29 -68 -37 -75 -13 -9 -13 -15 -4 -24 17 -17
36 5 57 70 15 47 31 63 48 46 3 -3 -3 -31 -14 -61 -21 -62 -24 -83 -10 -83 12
0 63 152 53 161 -4 3 -21 11 -39 17 l-31 10 -23 -61z"/>
<path d="M739 2099 c-26 -26 -20 -67 17 -116 26 -34 51 -41 85 -23 37 20 16
110 -33 144 -30 21 -44 20 -69 -5z m58 -17 c22 -14 43 -78 31 -90 -18 -18 -35
-14 -57 14 -31 39 -27 79 9 83 3 0 10 -3 17 -7z"/>
<path d="M1626 2112 c-2 -4 -20 -37 -40 -74 l-36 -67 40 -21 c46 -24 50 -24
50 -7 0 8 -11 20 -25 27 -28 15 -29 18 -16 39 8 12 14 13 36 3 33 -15 35 -15
35 1 0 8 -11 19 -25 25 -16 7 -23 17 -19 27 7 18 18 19 46 4 30 -16 45 4 16
23 -32 20 -57 28 -62 20z"/>
<path d="M1705 1990 c-47 -68 -56 -113 -11 -57 15 19 28 26 39 21 21 -8 21
-18 1 -50 -11 -16 -13 -29 -8 -34 6 -6 28 17 58 61 47 71 55 108 11 57 -20
-23 -25 -25 -41 -14 -17 13 -17 15 0 41 11 16 14 31 9 36 -6 6 -29 -18 -58
-61z"/>
<path d="M573 2002 c-7 -5 0 -32 22 -85 30 -74 53 -98 47 -51 -3 30 21 48 47
35 25 -14 31 -14 31 2 -1 6 -26 30 -57 52 -78 55 -78 55 -90 47z m57 -57 c9
-11 10 -19 3 -26 -6 -6 -13 -1 -21 16 -13 28 -2 34 18 10z"/>
<path d="M1816 1911 c-79 -84 -76 -96 16 -60 l53 20 -38 -39 c-22 -22 -35 -42
-30 -45 5 -4 36 21 68 53 68 69 66 91 -4 59 -24 -10 -46 -17 -49 -14 -3 3 9
20 27 39 18 19 28 36 23 40 -5 3 -35 -21 -66 -53z"/>
<path d="M457 1911 l-26 -30 62 -60 62 -61 28 30 c32 36 34 53 7 80 -25 25
-48 25 -75 0 -20 -19 -23 -19 -35 -5 -11 13 -9 19 9 38 24 27 27 37 8 37 -8 0
-25 -13 -40 -29z m119 -66 c2 -5 -3 -18 -11 -29 -13 -17 -15 -17 -30 -2 -14
14 -15 19 -4 32 13 16 40 15 45 -1z"/>
<path d="M1943 1835 c-13 -9 -23 -24 -23 -34 0 -14 -10 -20 -40 -25 -38 -6
-51 -18 -31 -30 4 -3 23 -1 41 4 47 13 56 2 25 -30 -47 -49 -10 -41 58 12 l66
52 -23 31 c-28 36 -44 40 -73 20z m47 -35 c8 -15 6 -21 -9 -30 -16 -8 -22 -7
-30 8 -7 13 -7 22 1 30 17 17 26 15 38 -8z"/>
<path d="M394 1829 c-3 -6 3 -24 15 -40 25 -33 21 -36 -15 -13 -36 24 -44 6
-9 -22 l30 -24 -49 7 c-39 5 -48 3 -44 -8 2 -7 13 -14 24 -15 54 -2 64 -5 64
-15 0 -22 42 -71 52 -61 7 7 3 20 -11 40 -29 41 -26 47 9 22 42 -30 59 -14 18
17 l-33 25 48 -7 c60 -9 64 10 5 26 -50 13 -78 35 -78 61 0 20 -15 24 -26 7z"/>
<path d="M1122 1663 l3 -48 73 -3 72 -3 0 51 0 50 -76 0 -75 0 3 -47z"/>
<path d="M300 1682 c0 -5 11 -19 25 -32 35 -32 31 -38 -15 -30 -23 4 -43 3
-46 -2 -9 -14 -3 -16 66 -25 57 -7 65 -11 68 -31 2 -13 9 -21 15 -19 25 8 15
30 -39 87 -54 57 -74 71 -74 52z"/>
<path d="M2032 1654 c-30 -13 -57 -22 -62 -19 -13 8 -60 -17 -60 -32 0 -10 5
-11 18 -4 16 8 22 4 35 -25 15 -30 15 -35 2 -40 -8 -4 -15 -10 -15 -15 0 -17
28 -9 57 15 15 13 52 35 80 50 l53 26 -17 35 c-9 19 -21 35 -27 34 -6 0 -35
-12 -64 -25z m62 -20 c8 -20 11 -17 -44 -43 -43 -20 -46 -21 -58 -4 -11 16 -7
20 35 39 59 28 59 28 67 8z"/>
<path d="M1025 1584 c-11 -2 -55 -6 -98 -9 -100 -9 -121 -26 -181 -149 l-46
-95 -29 30 c-23 22 -38 29 -70 29 -34 0 -43 -4 -54 -27 -27 -53 -6 -73 76 -73
55 0 57 -1 47 -21 -10 -18 -20 -91 -36 -260 -3 -33 1 -86 10 -132 9 -42 16
-92 16 -111 l0 -34 64 -7 c35 -4 78 -4 95 0 29 6 31 9 31 51 l0 44 345 0 345
0 0 -32 c0 -54 11 -62 92 -66 88 -4 107 6 112 63 2 22 9 82 17 133 10 73 10
102 1 138 -7 24 -12 61 -12 82 0 36 -9 83 -24 130 -7 21 -5 22 51 22 63 0 83
11 83 46 0 58 -78 73 -131 26 l-32 -29 -52 101 c-36 70 -60 106 -81 118 -38
22 -207 38 -384 37 -74 -1 -144 -3 -155 -5z m425 -54 c79 -8 98 -14 114 -32
22 -27 59 -99 86 -169 l21 -51 -116 7 c-152 9 -603 9 -729 0 l-98 -8 7 24 c12
45 84 185 104 203 14 13 45 20 113 26 138 11 390 11 498 0z m249 -427 c1 -13
0 -23 -1 -24 -2 0 -63 -8 -135 -18 -143 -18 -150 -16 -112 33 28 35 70 56 154
76 l70 17 12 -31 c6 -17 12 -41 12 -53z m-859 57 c51 -15 99 -47 112 -75 6
-14 9 -28 5 -31 -3 -3 -45 -1 -94 5 -166 21 -163 20 -163 46 0 13 5 36 10 51
10 25 14 26 53 21 23 -4 58 -11 77 -17z m568 -83 c-3 -22 -6 -22 -209 -25
-186 -2 -207 -1 -213 15 -4 9 -1 20 6 24 7 4 104 8 216 8 203 -1 203 -1 200
-22z m-40 -139 l-3 -33 -167 -3 -167 -2 -7 24 c-3 14 -3 30 1 35 4 7 68 11
176 11 l170 0 -3 -32z m-537 2 c25 -14 24 -46 -1 -60 -43 -23 -96 23 -64 54
18 19 38 20 65 6z m797 -2 c32 -32 -4 -74 -52 -62 -27 6 -39 26 -30 48 9 24
63 33 82 14z"/>
<path d="M230 1544 c-6 -16 -12 -34 -15 -41 -2 -7 21 -20 57 -32 33 -11 67
-28 74 -38 12 -16 15 -16 23 -3 14 21 0 33 -63 54 -51 17 -66 32 -50 49 3 3
31 -3 61 -14 62 -21 83 -24 83 -10 0 5 -30 19 -67 32 -38 12 -74 24 -80 26 -7
3 -17 -8 -23 -23z"/>
<path d="M2139 1563 c-1 -5 -2 -14 -3 -22 0 -9 -27 -23 -63 -35 -35 -11 -63
-26 -63 -33 0 -17 0 -17 72 8 58 19 63 19 74 4 23 -31 33 -7 17 40 -13 40 -31
59 -34 38z"/>
<path d="M2140 1429 c-25 -4 -60 -11 -77 -14 -18 -3 -33 -11 -33 -17 0 -10 70
-6 128 9 18 4 22 1 22 -20 0 -23 -6 -26 -65 -37 -39 -7 -65 -17 -65 -25 0 -10
16 -9 77 1 42 8 80 17 83 21 8 10 -8 93 -18 92 -4 -1 -27 -5 -52 -10z"/>
<path d="M196 1414 c-41 -41 11 -94 93 -94 65 0 95 52 49 84 -29 21 -50 3 -22
-19 19 -15 19 -15 -1 -30 -22 -17 -71 -12 -94 11 -13 12 -12 16 2 32 9 10 17
22 17 25 0 13 -29 7 -44 -9z"/>
<path d="M588 478 c-23 -8 -28 -16 -28 -43 0 -19 5 -37 10 -40 6 -4 10 5 10
20 0 18 9 31 31 44 35 21 20 33 -23 19z"/>
<path d="M1652 477 c-13 -6 -21 -16 -18 -26 3 -9 8 -34 11 -56 l6 -40 -34 38
c-34 37 -51 44 -75 28 -11 -6 -6 -24 25 -84 30 -60 41 -74 53 -67 12 8 11 15
-8 48 -32 58 -26 63 17 13 47 -55 66 -49 56 16 -4 25 -9 53 -11 62 -3 9 7 -6
22 -34 33 -62 32 -61 45 -48 8 8 1 31 -26 85 -20 40 -38 74 -39 74 0 1 -11 -3
-24 -9z"/>
<path d="M1756 481 c-3 -4 6 -13 20 -19 15 -8 27 -23 30 -42 8 -38 24 -29 24
15 0 28 -5 35 -31 44 -38 13 -37 13 -43 2z"/>
<path d="M617 447 c-21 -14 -27 -68 -9 -74 7 -3 12 5 12 21 0 18 8 30 25 38
14 6 25 15 25 20 0 12 -34 10 -53 -5z"/>
<path d="M688 401 c-35 -33 -59 -63 -55 -67 4 -5 17 -2 29 5 30 19 76 -2 80
-37 2 -15 10 -28 19 -30 13 -2 17 12 22 84 3 48 4 91 1 96 -12 18 -36 5 -96
-51z m58 -38 c-3 -3 -13 -3 -22 1 -15 6 -15 8 2 27 l19 21 3 -22 c2 -12 1 -24
-2 -27z"/>
<path d="M1720 452 c0 -5 11 -14 25 -20 19 -9 25 -19 25 -42 0 -18 4 -29 10
-25 6 3 10 22 10 41 0 28 -5 36 -26 44 -31 12 -44 13 -44 2z"/>
<path d="M822 345 c-13 -41 -21 -79 -18 -84 9 -13 95 -33 117 -26 20 7 35 47
24 64 -3 6 1 21 9 33 10 14 12 27 6 38 -9 17 -77 50 -103 50 -6 0 -22 -34 -35
-75z m92 29 c17 -7 21 -29 7 -38 -17 -11 -61 12 -55 29 6 16 22 19 48 9z m-10
-74 c5 -5 6 -16 3 -25 -5 -11 -14 -14 -34 -9 -36 9 -36 9 -28 34 5 16 12 19
28 14 12 -3 26 -10 31 -14z"/>
<path d="M1432 390 c-51 -21 -54 -111 -5 -150 30 -24 54 -25 92 -5 49 25 56
86 15 134 -27 32 -57 38 -102 21z m65 -28 c6 -4 17 -20 23 -36 8 -23 7 -34 -5
-52 -29 -44 -85 -17 -85 41 0 46 32 69 67 47z"/>
<path d="M984 303 c-35 -57 -44 -77 -35 -86 9 -9 16 -7 29 10 22 28 69 21 82
-13 12 -32 44 -33 37 -1 -3 12 -11 52 -18 89 -18 96 -35 96 -95 1z m66 -20 c0
-7 -9 -13 -20 -13 -23 0 -24 4 -9 32 9 17 13 18 20 7 5 -8 9 -20 9 -26z"/>
<path d="M1342 358 c-5 -7 -11 -22 -13 -32 -7 -33 -29 -31 -29 3 0 25 -4 31
-21 31 -17 0 -20 -5 -15 -27 3 -16 8 -54 12 -85 4 -40 11 -58 20 -58 10 0 14
13 14 42 0 40 0 41 20 23 11 -10 22 -26 25 -36 6 -17 45 -28 45 -13 0 13 -42
74 -50 74 -14 0 11 61 26 67 8 3 14 9 14 14 0 14 -36 11 -48 -3z"/>
<path d="M1126 323 c-3 -21 -6 -59 -6 -85 0 -41 3 -48 20 -48 16 0 20 7 20 30
0 27 3 30 30 30 31 0 70 30 70 53 0 7 -7 23 -16 35 -12 18 -25 22 -63 22 -48
0 -48 0 -55 -37z m89 -18 c0 -14 -8 -21 -27 -23 -24 -3 -28 0 -28 23 0 23 4
26 28 23 19 -2 27 -9 27 -23z"/>
</g>
</svg>
