<?xml version="1.0" standalone="no"?>
<!DOCTYPE svg PUBLIC "-//W3C//DTD SVG 20010904//EN"
 "http://www.w3.org/TR/2001/REC-SVG-20010904/DTD/svg10.dtd">
<svg version="1.0" xmlns="http://www.w3.org/2000/svg"
 width="225.000000pt" height="225.000000pt" viewBox="0 0 225.000000 225.000000"
 preserveAspectRatio="xMidYMid meet">
<metadata>
Created by potrace 1.14, written by Peter Selinger 2001-2017
</metadata>
<g transform="translate(0.000000,225.000000) scale(0.100000,-0.100000)"
fill="#000000" stroke="none">
<path d="M927 2214 c-459 -83 -823 -455 -897 -916 -18 -114 -8 -351 20 -453
149 -550 677 -902 1229 -821 173 26 316 79 456 171 512 335 656 1029 318 1537
-64 97 -197 235 -286 296 -143 98 -320 170 -471 191 -104 15 -274 12 -369 -5z
m161 -65 c18 -21 20 -29 9 -29 -13 0 -47 40 -47 55 0 13 17 2 38 -26z m42 1
c12 -16 18 -30 14 -30 -11 0 -54 42 -54 52 0 17 20 7 40 -22z m39 1 c12 -16
21 -32 21 -37 0 -10 -40 27 -51 48 -16 30 8 21 30 -11z m44 0 c31 -54 14 -59
-21 -6 -15 24 -18 35 -9 35 7 0 20 -13 30 -29z m57 -33 c0 -5 -4 -8 -10 -8 -9
0 -40 52 -40 67 1 10 50 -49 50 -59z m-265 22 c17 -18 23 -30 15 -30 -15 0
-60 39 -60 52 0 16 17 8 45 -22z m45 5 c35 -37 14 -44 -23 -7 -22 22 -27 32
-16 32 9 0 26 -11 39 -25z m245 -5 c17 -33 18 -40 7 -40 -5 0 -16 16 -25 35
-20 42 -4 47 18 5z m44 -6 c16 -35 14 -49 -3 -35 -21 17 -39 71 -22 65 7 -3
18 -16 25 -30z m-374 1 c20 -17 25 -25 14 -25 -16 0 -59 32 -59 44 0 12 15 5
45 -19z m-40 -10 c18 -15 24 -25 15 -25 -8 1 -28 12 -45 25 -18 15 -24 25 -15
25 8 -1 29 -12 45 -25z m455 -5 c17 -41 6 -50 -14 -11 -18 35 -19 41 -7 41 5
0 14 -14 21 -30z m40 -10 c11 -22 16 -40 10 -40 -10 0 -40 52 -40 70 0 19 10
10 30 -30z m-535 5 c19 -15 24 -24 15 -25 -8 0 -28 11 -45 25 -19 15 -24 24
-15 25 8 0 29 -11 45 -25z m-40 -10 c19 -16 24 -25 15 -25 -8 0 -28 11 -45 25
-19 15 -24 24 -15 24 8 0 29 -11 45 -24z m614 -6 c13 -39 13 -39 2 -39 -5 0
-14 14 -20 31 -13 39 -13 39 -2 39 5 0 14 -14 20 -31z m-659 -4 c19 -14 27
-25 19 -25 -20 0 -71 35 -62 43 8 9 4 11 43 -18z m700 -11 c16 -48 4 -56 -15
-11 -18 42 -18 47 -6 47 5 0 15 -16 21 -36z m44 -26 c8 -33 -10 -38 -19 -5
-18 62 -18 63 -2 47 8 -8 17 -27 21 -42z m-784 24 c16 -10 27 -22 24 -25 -7
-7 -60 18 -69 33 -10 16 12 12 45 -8z m822 -42 c3 -17 1 -30 -4 -30 -9 0 -13
8 -23 54 -5 25 -4 28 8 17 8 -6 17 -25 19 -41z m-859 23 c18 -9 27 -18 20 -20
-12 -4 -73 23 -73 32 0 10 21 5 53 -12z m557 -4 c0 -7 11 -9 30 -6 33 7 47 -5
25 -23 -19 -16 -72 -3 -85 21 -9 16 -7 19 10 19 11 0 20 -5 20 -11z m336 -24
c6 -32 1 -56 -10 -44 -10 11 -16 79 -7 79 6 0 13 -16 17 -35z m-931 13 c32
-14 31 -20 -1 -35 -22 -10 -32 -9 -63 7 -23 12 -30 19 -18 20 10 0 27 -5 38
-11 11 -6 25 -8 32 -6 7 2 -1 11 -18 20 -35 19 -10 24 30 5z m968 -45 c4 -18
3 -33 -2 -33 -12 0 -21 26 -21 58 0 34 15 17 23 -25z m-539 0 c3 -21 8 -64 12
-95 6 -57 6 -58 -20 -58 -24 0 -26 3 -26 44 0 25 -4 47 -8 50 -5 3 -20 -17
-33 -45 -21 -47 -43 -69 -67 -69 -5 0 -13 35 -16 78 -4 42 -10 85 -12 95 -4
13 1 17 20 17 23 0 26 -5 32 -52 l7 -51 20 39 c33 66 47 84 66 84 15 0 21 -9
25 -37z m136 13 c-1 -6 -5 -31 -9 -54 l-9 -44 47 46 c27 27 56 46 69 46 26 0
26 6 6 -103 -13 -69 -19 -87 -31 -83 -8 3 -19 6 -25 6 -9 0 -6 30 9 85 3 14
-10 5 -43 -27 -38 -37 -54 -46 -71 -42 -17 5 -22 12 -18 28 2 11 9 48 15 81 6
33 13 65 15 72 5 14 45 5 45 -11z m440 -37 c0 -24 -4 -38 -10 -34 -5 3 -10 24
-10 46 0 24 4 38 10 34 6 -3 10 -24 10 -46z m-1082 30 c18 -6 30 -15 27 -19
-6 -10 -75 10 -75 22 0 11 11 10 48 -3z m1114 -49 c4 -47 -7 -54 -16 -9 -8 44
-8 61 3 55 5 -3 11 -24 13 -46z m-1153 29 c17 -6 31 -15 31 -21 0 -6 -7 -7
-16 -4 -9 3 -27 9 -40 12 -13 3 -21 10 -18 15 7 11 5 11 43 -2z m317 -34 c23
-36 11 -72 -31 -92 -38 -18 -40 -24 -25 -53 8 -15 6 -21 -11 -30 -11 -7 -22
-10 -24 -8 -2 2 -19 41 -39 86 l-35 83 42 19 c61 27 103 26 123 -5z m609 -26
c-20 -37 -20 -36 15 -54 29 -15 30 -15 45 15 17 32 22 35 45 20 12 -7 10 -18
-15 -70 -47 -98 -57 -111 -78 -95 -17 12 -17 15 -3 44 16 30 16 31 -15 46 -17
9 -32 15 -33 13 -1 -2 -10 -15 -19 -31 -15 -23 -21 -26 -37 -17 -19 10 -18 14
22 94 39 79 43 83 64 74 22 -10 22 -12 9 -39z m265 0 c0 -24 -4 -38 -10 -34
-5 3 -10 24 -10 46 0 24 4 38 10 34 6 -3 10 -24 10 -46z m-1221 35 c17 -4 31
-11 31 -16 0 -12 -60 -2 -74 12 -12 12 -2 13 43 4z m-9 -35 c11 -6 9 -8 -10
-9 -37 0 -71 11 -64 21 5 9 48 2 74 -12z m1260 -20 c0 -24 -4 -38 -10 -34 -5
3 -10 22 -10 41 0 19 5 34 10 34 6 0 10 -18 10 -41z m31 -34 c-4 -27 -9 -36
-15 -27 -10 17 2 88 14 76 4 -5 5 -27 1 -49z m-1322 29 c2 -2 2 -7 -1 -10 -10
-9 -78 7 -72 18 5 8 62 2 73 -8z m1352 -59 c-4 -25 -9 -35 -14 -28 -10 16 3
87 13 76 5 -4 5 -26 1 -48z m-1397 36 c11 -4 15 -10 10 -13 -13 -8 -74 3 -74
13 0 11 37 11 64 0z m241 -70 c39 -24 72 -46 74 -48 11 -9 -35 -31 -49 -23
-22 12 -72 -27 -65 -50 4 -13 -1 -22 -15 -30 -24 -13 -20 -19 -54 97 l-23 82
21 15 c11 7 26 11 31 8 6 -3 42 -26 80 -51z m1186 4 c-4 -27 -9 -36 -15 -27
-10 17 2 88 14 76 4 -5 5 -27 1 -49z m-1451 35 c11 -7 4 -10 -27 -10 -24 0
-43 5 -43 10 0 13 50 13 70 0z m1290 -25 c11 -13 9 -20 -8 -38 -21 -23 -21
-23 -3 -42 33 -34 31 -78 -4 -101 -31 -20 -68 -8 -111 37 l-28 29 64 65 c36
36 67 65 71 65 4 0 12 -7 19 -15z m193 -28 c-7 -41 -23 -59 -23 -26 0 36 11
69 21 63 5 -2 6 -19 2 -37z m-1510 27 c13 -13 -3 -20 -37 -16 -20 2 -33 8 -30
13 6 10 57 12 67 3z m-43 -30 c17 -4 27 -10 21 -13 -15 -10 -82 -1 -75 10 6
11 12 11 54 3z m1577 -39 c-12 -40 -30 -37 -21 3 9 36 14 43 24 37 4 -3 3 -21
-3 -40z m33 1 c0 -22 -20 -70 -26 -63 -8 8 7 77 17 77 5 0 9 -6 9 -14z m-1615
-6 c-3 -5 -24 -10 -46 -10 -24 0 -38 4 -34 10 3 6 24 10 46 10 24 0 38 -4 34
-10z m725 0 c-20 -13 -53 -13 -45 0 3 6 18 10 33 10 21 0 24 -2 12 -10z m78 3
c-10 -2 -26 -2 -35 0 -10 3 -2 5 17 5 19 0 27 -2 18 -5z m82 -3 c12 -8 9 -10
-12 -10 -15 0 -30 5 -33 10 -8 13 25 13 45 0z m-234 -9 c-8 -12 -46 -21 -46
-11 0 5 8 11 18 13 29 8 33 7 28 -2z m305 -1 c5 0 9 -4 9 -10 0 -14 -13 -12
-36 6 -17 14 -17 15 -1 10 10 -3 23 -6 28 -6z m678 -48 c-6 -18 -15 -32 -21
-32 -6 0 -7 7 -4 16 3 9 9 27 12 41 4 14 10 21 15 16 6 -6 5 -23 -2 -41z
m-1659 28 c0 -5 -18 -10 -41 -10 -24 0 -38 4 -34 10 3 6 22 10 41 10 19 0 34
-4 34 -10z m175 -14 c13 -13 35 -26 49 -30 16 -4 28 -16 32 -32 7 -28 -3 -52
-45 -103 l-28 -34 -71 54 c-39 30 -71 59 -71 65 -1 15 82 104 98 104 6 0 23
-11 36 -24z m415 4 c-8 -6 -22 -10 -30 -9 -9 0 -5 6 10 14 27 14 44 10 20 -5z
m387 -10 c75 -24 178 -86 238 -141 109 -103 173 -240 182 -394 15 -236 -117
-462 -327 -563 -105 -50 -183 -66 -297 -60 -273 14 -496 211 -549 483 -64 331
177 656 516 694 65 7 184 -2 237 -19z m77 14 c9 -3 16 -10 16 -14 0 -10 -38
-1 -46 11 -6 10 7 12 30 3z m454 -7 c16 -19 -118 -153 -136 -135 -7 7 -12 17
-12 24 0 12 117 124 130 124 4 0 12 -6 18 -13z m-1528 -17 c0 -5 -4 -10 -9
-10 -5 0 -23 -3 -40 -6 -19 -4 -31 -2 -31 4 0 9 17 14 68 21 6 0 12 -3 12 -9z
m1710 1 c0 -20 -23 -71 -32 -71 -6 0 -7 7 -4 16 3 9 9 27 12 40 6 22 24 34 24
15z m-1176 -16 c-25 -19 -40 -19 -24 0 7 8 20 15 28 15 13 0 12 -3 -4 -15z
m612 0 c10 -8 14 -15 8 -15 -5 0 -19 7 -30 15 -10 8 -14 15 -8 15 5 0 19 -7
30 -15z m-1171 -24 c-6 -4 -27 -11 -48 -14 -33 -5 -37 -4 -27 8 7 8 29 15 48
15 21 0 32 -4 27 -9z m1745 -36 c-8 -24 -16 -33 -22 -27 -6 6 -4 21 7 42 21
41 30 32 15 -15z m-1254 20 c-11 -8 -25 -15 -30 -15 -6 0 -2 7 8 15 11 8 25
15 30 15 6 0 2 -7 -8 -15z m754 -15 c0 -6 -9 -5 -20 2 -11 7 -20 16 -20 21 0
4 9 3 20 -3 11 -6 20 -15 20 -20z m-1270 -5 c-7 -8 -29 -15 -48 -15 -42 0 -33
16 13 23 17 2 34 5 39 6 5 0 3 -6 -4 -14z m1790 -35 c-7 -16 -16 -30 -21 -30
-12 0 -11 6 7 41 20 39 31 30 14 -11z m-132 3 c2 -15 -7 -24 -39 -38 -34 -16
-38 -20 -23 -26 11 -4 35 -8 55 -8 38 -1 80 -34 63 -50 -5 -5 -44 -25 -86 -44
-75 -34 -78 -35 -88 -17 -9 17 -4 23 37 44 53 27 52 27 -41 40 -36 5 -55 18
-56 38 0 10 152 88 165 84 6 -1 11 -12 13 -23z m-1198 9 c0 -4 -10 -13 -22
-21 -23 -14 -23 -14 -4 8 20 22 26 25 26 13z m858 -12 c12 -19 11 -20 -8 -8
-11 7 -20 16 -20 20 0 15 15 8 28 -12z m392 -16 c0 -14 7 -27 15 -30 19 -8 20
-34 1 -34 -30 0 -60 73 -40 93 12 11 24 -4 24 -29z m-1725 16 c-7 -11 -73 -25
-82 -16 -8 7 36 25 65 25 13 1 21 -3 17 -9z m1819 -46 c-24 -36 -30 -14 -8 28
13 24 19 29 22 16 2 -9 -5 -29 -14 -44z m-1839 7 c-15 -14 -75 -24 -75 -13 0
12 22 19 60 21 14 1 20 -3 15 -8z m1857 -42 c-11 -17 -22 -27 -25 -22 -3 5 4
24 16 43 11 18 23 28 25 21 2 -6 -5 -25 -16 -42z m-1427 21 c-10 -11 -20 -18
-23 -15 -7 6 18 35 31 35 5 0 2 -9 -8 -20z m985 -12 c0 -6 -7 -5 -15 2 -8 7
-15 17 -15 22 0 6 7 5 15 -2 8 -7 15 -17 15 -22z m-1436 -7 c-5 -5 -24 -12
-43 -16 -44 -9 -33 11 12 23 35 10 46 7 31 -7z m1907 -19 c-18 -32 -40 -57
-41 -45 0 18 34 72 42 67 5 -3 4 -13 -1 -22z m-1613 3 c9 -9 -21 -45 -35 -43
-21 4 -43 -60 -25 -71 13 -8 5 -51 -9 -51 -5 0 -41 30 -79 68 -61 60 -68 70
-59 91 9 23 10 23 107 16 53 -4 98 -8 100 -10z m-308 -19 c-8 -8 -27 -18 -42
-21 -40 -10 -36 12 5 24 46 13 53 13 37 -3z m430 5 c0 -5 -7 -14 -15 -21 -16
-14 -18 -10 -9 14 6 17 24 22 24 7z m1064 -40 c-6 -6 -24 19 -24 34 1 6 7 1
15 -9 8 -11 12 -22 9 -25z m425 -13 c-13 -17 -25 -26 -27 -20 -2 6 7 26 19 44
13 17 25 26 27 20 2 -6 -7 -26 -19 -44z m-1929 14 c0 -9 -44 -32 -60 -32 -21
0 -9 19 18 28 35 13 42 14 42 4z m1960 -16 c0 -19 -49 -76 -50 -58 0 11 39 72
47 72 2 0 3 -6 3 -14z m-1570 -36 c-6 -12 -14 -19 -17 -17 -2 3 1 15 7 27 6
12 14 19 17 17 2 -3 -1 -15 -7 -27z m-400 12 c0 -9 -70 -45 -76 -40 -6 7 11
24 36 35 31 14 40 15 40 5z m1544 -8 c10 -25 -1 -29 -14 -5 -6 12 -7 21 -1 21
5 0 12 -7 15 -16z m412 -53 c-32 -32 -35 -10 -3 28 16 20 23 24 25 13 2 -8 -8
-26 -22 -41z m-1966 21 c0 -5 -16 -16 -35 -25 -41 -20 -48 -5 -7 17 31 17 42
19 42 8z m385 -41 c-3 -12 -11 -21 -16 -21 -6 0 -8 3 -6 8 2 4 7 16 11 26 9
25 20 13 11 -13z m1591 -19 c-17 -17 -26 -22 -26 -12 0 19 44 64 48 50 3 -7
-7 -24 -22 -38z m-396 29 c0 -5 3 -16 6 -25 3 -9 2 -16 -4 -16 -5 0 -12 11
-14 25 -3 14 -1 25 3 25 5 0 9 -4 9 -9z m-1590 -11 c0 -8 -51 -40 -65 -40 -15
0 -2 21 23 34 32 18 42 19 42 6z m2000 -52 c-13 -10 -20 -21 -16 -25 3 -3 15
2 26 12 11 10 20 14 20 8 0 -5 -14 -22 -31 -39 -30 -27 -31 -27 -26 -7 3 13 1
26 -5 29 -5 3 3 19 19 36 17 18 29 24 32 17 2 -7 -6 -21 -19 -31z m-2030 -8
c-24 -19 -50 -26 -50 -15 0 9 64 45 69 39 3 -3 -5 -14 -19 -24z m401 -27 c-10
-17 -10 -16 -11 3 0 23 13 41 18 25 2 -6 -1 -18 -7 -28z m1238 0 c0 -25 -1
-26 -9 -8 -12 27 -12 35 0 35 6 0 10 -12 9 -27z m-1634 -10 c-36 -26 -55 -34
-55 -23 0 12 62 52 70 44 3 -3 -4 -12 -15 -21z m2055 -11 c0 -14 -49 -56 -57
-49 -3 4 4 18 17 32 24 25 40 32 40 17z m-2050 -15 c0 -7 -13 -21 -30 -30 -38
-23 -40 -6 -2 22 32 24 32 24 32 8z m390 -32 c0 -14 -4 -25 -10 -25 -11 0 -14
33 -3 43 11 11 13 8 13 -18z m1250 -11 c0 -14 -4 -23 -10 -19 -5 3 -10 15 -10
26 0 10 5 19 10 19 6 0 10 -12 10 -26z m410 14 c-1 -17 -49 -52 -58 -43 -4 4
7 18 23 31 35 28 35 28 35 12z m-2050 -10 c-1 -17 -49 -52 -58 -43 -4 4 7 18
23 31 35 28 35 28 35 12z m-26 -73 c-38 -30 -44 -13 -7 19 15 14 30 20 32 14
2 -6 -9 -21 -25 -33z m2076 36 c0 -12 -50 -44 -58 -36 -4 3 4 15 18 25 27 21
40 25 40 11z m-1661 -38 c0 -25 -1 -25 -8 -8 -5 11 -7 23 -4 28 8 14 13 7 12
-20z m1250 10 c0 -5 -4 -17 -9 -28 -8 -18 -9 -17 -9 8 -1 15 4 27 9 27 6 0 10
-3 9 -7z m411 -12 c0 -12 -50 -44 -58 -36 -4 3 4 15 18 25 27 21 40 25 40 11z
m-2050 -9 c0 -14 -49 -56 -57 -49 -3 4 4 18 17 32 24 25 40 32 40 17z m2045
-41 c-3 -6 -19 -18 -36 -26 -40 -21 -38 0 3 25 33 20 45 20 33 1z m-2041 -5
c-6 -16 -54 -51 -54 -39 0 10 42 53 51 53 5 0 6 -6 3 -14z m398 -21 c3 -14 1
-25 -3 -25 -5 0 -9 11 -9 25 0 14 2 25 4 25 2 0 6 -11 8 -25z m1221 -5 c-3
-11 -10 -23 -16 -27 -7 -4 -8 0 -4 11 4 10 7 22 7 27 0 5 4 9 9 9 5 0 7 -9 4
-20z m427 1 c0 -9 -70 -54 -76 -49 -6 7 12 26 41 41 36 19 35 19 35 8z m-2040
-7 c0 -12 -48 -63 -53 -57 -7 6 33 63 45 63 4 0 8 -3 8 -6z m2030 -37 c0 -7
-16 -21 -36 -30 -44 -21 -42 -2 2 24 36 22 34 21 34 6z m-2020 -3 c0 -12 -48
-63 -54 -57 -7 7 32 63 45 63 5 0 9 -3 9 -6z m404 -20 c9 -23 7 -36 -3 -30
-12 8 -21 46 -11 46 4 0 11 -7 14 -16z m1165 -28 c-9 -8 -10 -7 -5 7 3 10 7
24 7 30 1 7 3 4 6 -7 3 -10 -1 -23 -8 -30z m-1581 -27 c-20 -27 -38 -38 -38
-23 0 15 42 64 51 59 5 -4 -1 -19 -13 -36z m2022 33 c0 -5 -16 -16 -35 -25
-41 -20 -48 -5 -7 17 31 17 42 19 42 8z m-1990 -37 c0 -14 -44 -64 -51 -59
-10 6 30 64 43 64 4 0 8 -2 8 -5z m418 -20 c6 -14 8 -25 3 -25 -4 0 -13 11
-19 25 -6 14 -8 25 -3 25 4 0 13 -11 19 -25z m1560 14 c-5 -14 -68 -41 -68
-29 0 9 47 39 63 40 5 0 7 -5 5 -11z m-458 -29 c-6 -12 -14 -19 -17 -17 -2 3
1 15 7 27 6 12 14 19 17 17 2 -3 -1 -15 -7 -27z m-1510 -7 c0 -5 -11 -21 -25
-38 -27 -33 -34 -18 -9 20 16 24 34 33 34 18z m1954 -12 c-14 -14 -64 -25 -64
-14 0 6 15 15 33 20 35 10 46 8 31 -6z m-1508 -28 c16 -21 18 -37 4 -28 -13 8
-33 45 -24 45 4 0 13 -8 20 -17z m-436 2 c0 -18 -32 -65 -41 -60 -5 4 -2 18 8
36 15 26 33 38 33 24z m1460 -20 c-7 -9 -15 -13 -18 -10 -3 2 1 11 8 20 7 9
15 13 18 10 3 -2 -1 -11 -8 -20z m474 5 c-5 -5 -25 -13 -43 -16 -44 -9 -34 12
12 24 35 10 46 7 31 -8z m-1931 -55 c-16 -33 -33 -46 -33 -26 0 17 34 70 42
65 4 -3 0 -20 -9 -39z m325 15 c7 -11 9 -20 5 -20 -5 -1 -21 -12 -38 -26 l-30
-25 53 2 c43 2 57 -2 75 -19 l21 -22 -60 0 -61 0 -18 -60 -18 -61 -21 20 c-19
20 -19 22 -4 71 9 27 14 50 12 50 -3 0 -18 -10 -35 -22 -30 -23 -31 -23 -45
-4 -8 11 -11 23 -7 27 24 23 140 108 148 108 6 1 16 -8 23 -19z m1586 1 c-12
-12 -81 -26 -71 -15 11 11 71 33 76 28 3 -3 0 -8 -5 -13z m-1414 -34 c0 -6 -9
-2 -20 8 -11 10 -20 23 -20 28 0 6 9 2 20 -8 11 -10 20 -23 20 -28z m1115 31
c37 -17 43 -54 16 -102 -22 -41 -22 -41 19 -65 13 -8 12 -12 -4 -30 -18 -20
-18 -20 -92 36 -41 30 -74 61 -74 68 0 16 83 105 98 105 6 0 23 -5 37 -12z
m-200 -18 c-10 -11 -23 -20 -28 -20 -6 0 -2 9 8 20 10 11 23 20 28 20 6 0 2
-9 -8 -20z m-1401 -48 c-24 -36 -30 -12 -8 30 14 26 19 29 22 15 2 -10 -4 -30
-14 -45z m1896 38 c0 -11 -7 -14 -52 -24 -39 -9 -35 11 5 23 44 13 47 13 47 1z
m-1860 -30 c0 -17 -31 -72 -37 -67 -7 7 19 77 29 77 4 0 8 -5 8 -10z m505 -28
c-6 -7 -35 18 -35 31 0 5 9 2 20 -8 11 -10 18 -20 15 -23z m800 8 c-10 -11
-20 -18 -23 -15 -7 6 18 35 31 35 5 0 2 -9 -8 -20z m532 4 c-3 -3 -22 -9 -42
-14 -26 -6 -35 -5 -32 3 2 7 19 14 38 17 35 6 47 4 36 -6z m-1817 -18 c0 -15
-24 -66 -31 -66 -11 0 -11 0 2 39 6 17 15 31 20 31 5 0 9 -2 9 -4z m550 -38
c0 -5 -9 -3 -20 4 -11 7 -20 16 -20 20 0 5 9 3 20 -4 11 -7 20 -16 20 -20z
m1250 23 c0 -9 -34 -21 -62 -21 -29 0 -21 18 10 23 48 7 52 7 52 -2z m-574
-16 c-11 -8 -25 -15 -30 -15 -6 0 -2 7 8 15 11 8 25 15 30 15 6 0 2 -7 -8 -15z
m-1206 -4 c0 -20 -23 -70 -30 -66 -10 6 10 75 22 75 4 0 8 -4 8 -9z m1755 -20
c-6 -4 -27 -11 -48 -14 -33 -5 -37 -4 -27 8 7 8 29 15 48 15 21 0 32 -4 27 -9z
m-1348 -36 c32 -32 35 -39 30 -78 -10 -74 -77 -112 -142 -82 -71 34 -85 107
-31 161 48 48 95 47 143 -1z m188 25 c3 -5 -1 -10 -9 -10 -8 0 -18 5 -21 10
-3 6 1 10 9 10 8 0 18 -4 21 -10z m541 -5 c-23 -17 -36 -19 -36 -6 0 5 8 12
18 14 32 9 37 6 18 -8z m346 -78 c22 -17 22 -18 4 -32 -12 -9 -24 -11 -35 -6
-23 13 -71 -30 -65 -56 6 -22 -22 -51 -35 -37 -10 11 -61 163 -61 183 0 8 8
20 18 27 14 11 27 7 84 -24 37 -20 78 -45 90 -55z m-1473 27 c-8 -20 -13 -24
-16 -13 -2 8 2 29 8 45 8 20 13 24 16 13 2 -8 -2 -29 -8 -45z m661 26 c12 -8
11 -10 -7 -10 -12 0 -25 5 -28 10 -8 13 15 13 35 0z m400 0 c-8 -5 -24 -9 -35
-9 l-20 0 20 9 c11 5 27 9 35 9 13 1 13 0 0 -9z m660 0 c0 -5 -18 -10 -41 -10
-24 0 -38 4 -34 10 3 6 22 10 41 10 19 0 34 -4 34 -10z m-1690 -41 c-11 -36
-16 -44 -23 -32 -7 13 13 74 23 68 5 -3 5 -18 0 -36z m710 21 c12 -8 11 -10
-7 -10 -12 0 -25 5 -28 10 -8 13 15 13 35 0z m245 0 c-3 -5 -18 -10 -33 -9
-24 0 -25 1 -7 9 28 12 47 12 40 0z m-170 -10 c17 -7 14 -9 -13 -9 -20 -1 -31
3 -27 9 7 12 13 12 40 0z m95 0 c0 -5 -15 -10 -32 -9 -31 1 -32 1 -8 9 35 11
40 11 40 0z m785 0 c-3 -5 -22 -10 -41 -10 -21 0 -33 4 -29 10 3 6 22 10 41
10 21 0 33 -4 29 -10z m-1639 -45 c-4 -19 -12 -35 -17 -35 -10 0 -4 53 8 73
10 17 15 -4 9 -38z m460 9 c25 -6 25 -10 9 -116 -3 -16 -3 -28 -1 -28 2 0 20
24 41 54 35 52 38 54 66 44 16 -5 32 -14 35 -19 8 -13 -57 -179 -70 -179 -33
1 -37 17 -16 69 31 79 32 80 -56 -37 -1 -2 -12 -1 -25 3 -20 7 -21 11 -16 71
4 35 5 64 2 64 -2 0 -11 -22 -20 -50 -18 -55 -26 -63 -49 -54 -22 8 -21 17 17
111 22 57 36 82 45 78 8 -3 25 -8 38 -11z m-433 -47 c-3 -24 -9 -35 -15 -29
-5 5 -6 26 -2 46 9 49 25 32 17 -17z m1157 33 c14 -10 22 -22 18 -25 -9 -10
-49 -10 -70 -1 -24 11 -61 -29 -52 -57 19 -64 83 -74 102 -17 14 39 42 40 42
2 0 -64 -78 -109 -137 -79 -29 16 -63 69 -63 101 0 74 100 122 160 76z m425
11 c-6 -6 -25 -6 -45 -1 l-35 8 45 1 c27 1 40 -3 35 -8z m-1554 -76 c-4 -27
-9 -36 -15 -27 -10 17 2 88 14 76 4 -5 5 -27 1 -49z m1534 45 c-3 -5 -21 -10
-40 -10 -19 0 -37 5 -40 10 -4 6 12 10 40 10 28 0 44 -4 40 -10z m-1503 -75
c-2 -19 -8 -32 -13 -29 -10 6 -12 45 -3 69 10 26 21 0 16 -40z m888 40 c17 -9
30 -17 30 -19 0 -3 3 -11 6 -19 7 -20 -32 -29 -47 -11 -6 8 -24 14 -40 14 -22
0 -30 -6 -35 -25 -14 -58 24 -107 66 -85 11 6 20 17 20 25 0 8 4 15 9 15 5 0
16 3 25 6 28 11 19 -35 -13 -67 -52 -51 -129 -35 -156 34 -19 47 -13 87 18
114 39 36 73 41 117 18z m585 5 c-3 -5 -19 -10 -35 -10 -16 0 -32 5 -35 10 -4
6 10 10 35 10 25 0 39 -4 35 -10z m-883 -57 c-2 -29 -2 -53 1 -53 3 0 22 23
43 50 26 34 45 50 61 50 26 0 28 -13 16 -132 -6 -64 -7 -68 -31 -68 -25 0 -25
1 -18 62 l6 62 -42 -57 c-34 -44 -49 -56 -71 -57 l-28 0 6 68 c11 124 14 134
38 130 20 -3 22 -8 19 -55z m858 26 c0 -10 -34 -12 -68 -2 -14 3 -19 9 -13 12
15 9 81 1 81 -10z m-1417 -36 c-3 -18 -9 -33 -14 -33 -11 0 -11 7 -3 49 9 42
23 26 17 -16z m1372 17 c13 0 16 -3 8 -11 -13 -13 -85 -1 -77 13 4 5 16 7 28
4 11 -3 30 -6 41 -6z m-1335 -46 c0 -19 -4 -34 -10 -34 -5 0 -10 18 -10 41 0
24 4 38 10 34 6 -3 10 -22 10 -41z m30 -25 c0 -24 -4 -38 -10 -34 -5 3 -10 24
-10 46 0 24 4 38 10 34 6 -3 10 -24 10 -46z m1270 42 c35 -10 10 -22 -29 -15
-17 4 -34 11 -37 15 -6 10 29 10 66 0z m-23 -35 c2 -2 1 -6 -4 -9 -13 -7 -74
13 -68 23 5 8 61 -3 72 -14z m-1214 -23 c6 -36 3 -52 -8 -41 -11 11 -18 78 -8
78 6 0 13 -17 16 -37z m37 -29 c0 -19 -4 -34 -10 -34 -5 0 -10 18 -10 41 0 24
4 38 10 34 6 -3 10 -22 10 -41z m1144 26 c15 -15 -23 -12 -59 6 l-30 14 39 -5
c22 -2 44 -9 50 -15z m-1104 -57 c0 -13 -4 -23 -10 -23 -5 0 -10 8 -10 18 0 9
-3 28 -6 42 -5 24 -5 24 10 6 9 -11 16 -30 16 -43z m1038 46 c18 -6 30 -15 27
-19 -6 -10 -62 7 -71 21 -7 12 6 11 44 -2z m-1003 -64 c6 -30 5 -37 -4 -29 -7
6 -14 28 -18 50 -8 53 13 33 22 -21z m970 43 c22 -10 35 -28 20 -28 -12 0 -75
29 -75 34 0 10 28 7 55 -6z m-934 -49 c13 -59 -7 -54 -21 6 -6 25 -5 35 3 32
6 -2 15 -19 18 -38z m902 24 c18 -9 27 -18 20 -20 -12 -4 -73 23 -73 32 0 10
21 5 53 -12z m-864 -34 c15 -43 14 -54 -3 -40 -15 12 -27 71 -15 71 4 0 12
-14 18 -31z m826 19 c25 -11 34 -28 15 -28 -13 0 -70 29 -70 35 0 9 29 5 55
-7z m-789 -33 c16 -40 17 -45 5 -45 -8 0 -31 52 -31 71 0 19 12 7 26 -26z
m747 16 c24 -13 37 -31 22 -31 -15 0 -65 32 -65 41 0 6 3 9 8 7 4 -2 19 -10
35 -17z m-703 -37 c16 -48 4 -56 -15 -11 -18 42 -18 47 -6 47 5 0 15 -16 21
-36z m670 16 c34 -26 5 -26 -35 0 -25 16 -27 20 -10 20 11 0 31 -9 45 -20z
m-625 -37 c3 -14 4 -27 1 -30 -6 -6 -36 51 -36 68 0 20 27 -9 35 -38z m576 30
c26 -16 38 -33 23 -33 -9 0 -74 41 -74 46 0 9 23 3 51 -13z m-536 -34 c13 -24
13 -29 2 -29 -13 0 -37 40 -37 61 0 17 19 0 35 -32z m500 16 c19 -15 24 -24
15 -24 -8 0 -28 11 -45 24 -19 16 -24 25 -15 25 8 0 29 -11 45 -25z m-462 -20
c20 -42 4 -47 -18 -5 -17 33 -18 40 -7 40 5 0 16 -16 25 -35z m422 10 c19 -15
24 -24 15 -25 -8 0 -28 11 -45 25 -19 15 -24 24 -15 25 8 0 29 -11 45 -25z
m-380 -15 c17 -33 18 -40 7 -40 -8 0 -42 52 -42 64 0 17 21 2 35 -24z m45 -10
c15 -22 17 -30 8 -30 -8 0 -21 13 -31 29 -31 53 -14 53 23 1z m296 15 c17 -14
23 -24 15 -25 -8 0 -25 10 -38 22 -26 25 -43 19 -17 -6 26 -27 7 -32 -21 -6
-32 30 -31 35 3 37 17 1 40 -8 58 -22z m-256 -16 c12 -16 19 -33 15 -37 -6 -7
-27 15 -46 51 -17 30 8 19 31 -14z m39 2 c12 -16 21 -32 21 -37 0 -10 -40 27
-51 48 -16 30 8 21 30 -11z m41 4 c25 -27 21 -47 -5 -25 -21 17 -38 50 -27 50
5 0 19 -11 32 -25z m48 -6 c17 -20 19 -29 10 -29 -8 0 -24 13 -36 30 -30 40
-5 39 26 -1z m42 6 c35 -37 14 -44 -23 -7 -22 22 -27 32 -16 32 9 0 26 -11 39
-25z"/>
<path d="M808 1933 c-25 -6 -23 -43 1 -43 22 0 45 25 36 40 -6 10 -9 11 -37 3z"/>
<path d="M626 1778 c9 -31 11 -33 29 -18 14 11 13 14 -2 26 -26 20 -35 17 -27
-8z"/>
<path d="M1642 1724 c-11 -12 -11 -18 -2 -29 26 -31 59 -10 40 25 -13 24 -20
25 -38 4z"/>
<path d="M440 1655 c-10 -13 -11 -18 -1 -28 10 -9 15 -8 27 7 8 11 14 23 14
28 0 14 -27 9 -40 -7z"/>
<path d="M501 1616 c-22 -24 -22 -25 -3 -35 16 -8 21 -6 32 15 20 37 0 51 -29
20z"/>
<path d="M1062 1563 c-21 -37 -103 -180 -182 -318 -78 -137 -151 -265 -162
-282 l-20 -33 64 0 64 0 169 290 c92 160 170 290 172 290 2 0 -1 -9 -7 -19 -5
-11 -10 -31 -10 -44 0 -14 65 -138 145 -277 80 -139 145 -255 145 -258 0 -4
-4 -2 -9 4 -6 5 -154 8 -374 6 l-365 -2 -13 -31 c-26 -65 -36 -64 405 -67 218
-1 396 1 396 5 0 5 -10 24 -21 43 -13 21 -15 30 -6 22 8 -7 20 -26 27 -42 11
-26 18 -30 49 -30 39 0 61 14 61 40 0 16 -357 652 -387 689 -2 3 -10 -4 -19
-15 -14 -18 -15 -18 -4 4 16 32 -16 86 -52 90 -23 3 -31 -5 -66 -65z m78 7 c0
-5 -4 -10 -10 -10 -5 0 -10 5 -10 10 0 6 5 10 10 10 6 0 10 -4 10 -10z m-405
-700 c3 -5 1 -10 -4 -10 -6 0 -11 5 -11 10 0 6 2 10 4 10 3 0 8 -4 11 -10z
m805 0 c0 -5 -4 -10 -10 -10 -5 0 -10 5 -10 10 0 6 5 10 10 10 6 0 10 -4 10
-10z"/>
<path d="M1100 1292 l-22 -18 19 -94 c25 -125 41 -126 65 -6 16 81 16 92 3
113 -19 28 -35 29 -65 5z"/>
<path d="M1110 1045 c-18 -21 -8 -50 19 -53 37 -6 52 26 25 52 -19 20 -28 20
-44 1z"/>
<path d="M360 1435 c7 -8 19 -15 26 -15 8 0 14 7 14 15 0 10 -10 15 -26 15
-22 0 -25 -2 -14 -15z"/>
<path d="M1745 670 c-18 -20 -18 -21 -1 -38 16 -16 18 -16 32 3 29 39 1 71
-31 35z"/>
<path d="M585 516 c-29 -29 -32 -58 -9 -80 22 -22 47 -20 72 7 54 57 -7 128
-63 73z"/>
<path d="M1632 489 c6 -16 15 -28 21 -26 21 7 18 24 -7 40 l-25 17 11 -31z"/>
</g>
</svg>
